<?xml version="1.0" encoding="utf-8"?>
<!-- Generator: Adobe Illustrator 16.0.0, SVG Export Plug-In . SVG Version: 6.00 Build 0)  -->
<!DOCTYPE svg PUBLIC "-//W3C//DTD SVG 1.1//EN" "http://www.w3.org/Graphics/SVG/1.1/DTD/svg11.dtd">
<svg version="1.1" id="Layer_1" xmlns="http://www.w3.org/2000/svg" xmlns:xlink="http://www.w3.org/1999/xlink" x="0px" y="0px"
	 width="538px" height="540px" viewBox="151.445 26.14 538 540" enable-background="new 151.445 26.14 538 540"
	 xml:space="preserve">
<g>
	<path fill="#4C498B" d="M420.945,47.623c-135.521,0-250.018,114.49-250.018,250.018s114.496,250.018,250.018,250.018
		s250.018-114.49,250.018-250.018S556.466,47.623,420.945,47.623z M510.201,252.125c11.526,0,20.87,9.345,20.87,20.871
		s-9.344,20.87-20.87,20.87c-11.527,0-20.871-9.344-20.871-20.87S498.674,252.125,510.201,252.125z M334.629,252.125
		c11.526,0,20.87,9.345,20.87,20.871s-9.344,20.87-20.87,20.87s-20.87-9.344-20.87-20.87S323.103,252.125,334.629,252.125z
		 M540.4,386.963c-23.431,40.365-69.207,65.444-119.455,65.444c-50.253,0-96.03-25.079-119.461-65.451
		c-3.298-5.685-1.369-12.965,4.322-16.269c5.679-3.304,12.965-1.369,16.269,4.321c19.192,33.057,57.076,53.588,98.87,53.588
		c41.795,0,79.672-20.531,98.858-53.588c3.304-5.685,10.59-7.619,16.274-4.321C541.763,373.985,543.698,381.271,540.4,386.963z"/>
</g>
</svg>
